# xmcd CD database file
#
# Track frame offsets:
#	182
#	48007
#	126427
#	145792
#	174812
#	218330
#	267247
#	294032
#
# Disc length: 4485 seconds
#
# Revision: 0
# Processed by: cddbd v1.4PL0 Copyright (c) Steve Scherf et al.
# Submitted via: CDex 1.50
#
DISCID=65118308
DTITLE=Christy Doran and Fredy Studer - Half A Lifetime - Disc B
DYEAR=1994
DGENRE=Jazz
TTITLE0=Half a Lifetime
TTITLE1=Back to Front
TTITLE2=Mad Dogs and Englishmen
TTITLE3=Kater Karlo
TTITLE4=Phoenix
TTITLE5=Lucky Can
TTITLE6=Fire
TTITLE7=Quasar
EXTD=YEAR: 1994
EXTT0=
EXTT1=
EXTT2=
EXTT3=
EXTT4=
EXTT5=
EXTT6=
EXTT7=
PLAYORDER=
